0
SECTION
2
HEADER
9
$INSUNITS
70
4
9
$ACADVER
1
AC1014
9
$HANDSEED
5
FFFF
0
ENDSEC
0
SECTION
2
TABLES
0
TABLE
2
VPORT
5
8
100
AcDbSymbolTable
0
ENDTAB
0
TABLE
2
LTYPE
5
5
100
AcDbSymbolTable
0
LTYPE
5
14
100
AcDbSymbolTableRecord
100
AcDbLinetypeTableRecord
2
BYBLOCK
70
0
0
LTYPE
5
15
100
AcDbSymbolTableRecord
100
AcDbLinetypeTableRecord
2
BYLAYER
70
0
0
ENDTAB
0
TABLE
2
LAYER
5
2
100
AcDbSymbolTable
70
2
0
LAYER
5
50
100
AcDbSymbolTableRecord
100
AcDbLayerTableRecord
2
0
70
0
6
CONTINUOUS
0
ENDTAB
0
TABLE
2
STYLE
5
3
100
AcDbSymbolTable
70
1
0
STYLE
5
11
100
AcDbSymbolTableRecord
100
AcDbTextStyleTableRecord
2
STANDARD
70
0
0
ENDTAB
0
TABLE
2
VIEW
5
6
100
AcDbSymbolTable
70
0
0
ENDTAB
0
TABLE
2
UCS
5
7
100
AcDbSymbolTable
70
0
0
ENDTAB
0
TABLE
2
APPID
5
9
100
AcDbSymbolTable
70
2
0
APPID
5
12
100
AcDbSymbolTableRecord
100
AcDbRegAppTableRecord
2
ACAD
70
0
0
ENDTAB
0
TABLE
2
DIMSTYLE
5
A
100
AcDbSymbolTable
70
1
0
ENDTAB
0
TABLE
2
BLOCK_RECORD
5
1
100
AcDbSymbolTable
70
1
0
BLOCK_RECORD
5
1F
100
AcDbSymbolTableRecord
100
AcDbBlockTableRecord
2
*MODEL_SPACE
0
BLOCK_RECORD
5
1B
100
AcDbSymbolTableRecord
100
AcDbBlockTableRecord
2
*PAPER_SPACE
0
ENDTAB
0
ENDSEC
0
SECTION
2
BLOCKS
0
BLOCK
5
20
100
AcDbEntity
100
AcDbBlockBegin
2
*MODEL_SPACE
0
ENDBLK
5
21
100
AcDbEntity
100
AcDbBlockEnd
0
BLOCK
5
1C
100
AcDbEntity
100
AcDbBlockBegin
2
*PAPER_SPACE
0
ENDBLK
5
1D
100
AcDbEntity
100
AcDbBlockEnd
0
ENDSEC
0
SECTION
2
ENTITIES
0
LWPOLYLINE
5
100
100
AcDbEntity
8
0
100
AcDbPolyline
90
8
70
1
43
0.0
10
-39.84729096850306
20
71.328653982419794
10
-27.158981949989951
20
77.245309646789593
42
0.41421356237308821
10
-26.796214806017986
20
78.2420041833726
10
-31.57180116368788
20
88.48328217688676
42
0.41421356237308782
10
-32.568495700270887
20
88.846049320858711
10
-45.256804718784011
20
82.929393656488926
42
0.41421356237308704
10
-45.619571862755976
20
81.932699119905919
10
-40.84398550508606
20
71.691421126391774
42
0.41421356237308571
0
LWPOLYLINE
5
101
100
AcDbEntity
8
0
100
AcDbPolyline
90
8
70
1
43
0.0
10
-62.374514838170811
20
66.141894777420745
10
-48.587206295999877
20
68.572969264757788
42
0.41421356237308882
10
-47.97883661449093
20
69.441811212767135
10
-49.941061022127251
20
80.570138821805102
42
0.41421356237308193
10
-50.809902970136598
20
81.178508503314049
10
-64.59721151230751
20
78.747434015977021
42
0.4142135623730876
10
-65.205581193816471
20
77.878592067967674
10
-63.243356786180158
20
66.750264458929706
42
0.4142135623730876
0
LWPOLYLINE
5
102
100
AcDbEntity
8
0
100
AcDbPolyline
90
8
70
1
43
0.0
10
-30.925635512002671
20
52.343303759029112
10
-17.138326969831773
20
54.77437824636614
42
0.41421356237309426
10
-16.529957288322827
20
55.643220194375502
10
-18.492181695959118
20
66.771547803413455
42
0.4142135623731012
10
-19.361023643968469
20
67.379917484922402
10
-33.148332186139363
20
64.948842997585388
42
0.41421356237310536
10
-33.756701867648346
20
64.08000104957604
10
-31.79447746001204
20
52.95167344053808
42
0.41421356237309337
0
LWPOLYLINE
5
103
100
AcDbEntity
8
0
100
AcDbPolyline
90
8
70
1
43
0.0
10
-27.617637727311536
20
33.582716064229345
10
-13.830329185140624
20
36.013790551566359
42
0.41421356237309753
10
-13.221959503631675
20
36.882632499575713
10
-15.184183911267969
20
48.010960108613673
42
0.4142135623731007
10
-16.053025859277319
20
48.619329790122634
10
-29.840334401448235
20
46.18825530278562
42
0.41421356237308998
10
-30.448704082957217
20
45.319413354776252
10
-28.486479675320865
20
34.191085745738306
42
0.41421356237309909
0
LWPOLYLINE
5
104
100
AcDbEntity
8
0
100
AcDbPolyline
90
8
70
1
43
0.0
10
-24.309639942182461
20
14.822128369602645
10
-10.522331400011547
20
17.253202856939666
42
0.41421356237309553
10
-9.9139617185026001
20
18.122044804949013
10
-11.876186126138892
20
29.250372413986973
42
0.41421356237309859
10
-12.745028074148244
20
29.858742095495927
10
-26.532336616319153
20
27.427667608158906
42
0.41421356237310092
10
-27.140706297828139
20
26.558825660149555
10
-25.178481890191794
20
15.430498051111606
42
0.41421356237309431
0
LWPOLYLINE
5
105
100
AcDbEntity
8
0
100
AcDbPolyline
90
8
70
1
43
0.0
10
-49.272723483815909
20
46.690232512613854
10
-35.485414941645011
20
49.121306999950875
42
0.4142135623730982
10
-34.877045260136065
20
49.990148947960229
10
-36.839269667772356
20
61.118476556998189
42
0.41421356237310247
10
-37.708111615781704
20
61.726846238507136
10
-51.495420157952609
20
59.295771751170122
42
0.41421356237310536
10
-52.103789839461584
20
58.426929803160775
10
-50.141565431825271
20
47.298602194122815
42
0.41421356237310536
0
LWPOLYLINE
5
106
100
AcDbEntity
8
0
100
AcDbPolyline
90
8
70
1
43
0.0
10
-45.964725699124777
20
27.929644817814076
10
-32.177417156953865
20
30.360719305151093
42
0.41421356237309909
10
-31.569047475444915
20
31.229561253160441
10
-33.53127188308121
20
42.357888862198401
42
0.41421356237310192
10
-34.400113831090557
20
42.966258543707355
10
-48.187422373261469
20
40.535184056370348
42
0.41421356237309204
10
-48.795792054770459
20
39.666342108360986
10
-46.833567647134117
20
28.538014499323037
42
0.41421356237308654
0
LWPOLYLINE
5
107
100
AcDbEntity
8
0
100
AcDbPolyline
90
8
70
1
43
0.0
10
-42.656727913995702
20
9.1690571231873754
10
-28.869419371824783
20
11.600131610524393
42
0.4142135623730902
10
-28.261049690315836
20
12.468973558533742
10
-30.223274097952132
20
23.5973011675717
42
0.41421356237309853
10
-31.092116045961479
20
24.205670849080654
10
-44.879424588132395
20
21.774596361743637
42
0.41421356237308427
10
-45.487794269641377
20
20.905754413734282
10
-43.525569862005042
20
9.7774268046963346
42
0.41421356237308066
0
LWPOLYLINE
5
108
100
AcDbEntity
8
0
100
AcDbPolyline
90
8
70
1
43
0.0
10
-67.619811455629019
20
41.037161266198765
10
-53.832502913458114
20
43.468235753535787
42
0.41421356237308937
10
-53.224133231949168
20
44.337077701545141
10
-55.186357639585466
20
55.465405310583108
42
0.41421356237308882
10
-56.055199587594814
20
56.073774992092055
10
-69.842508129765719
20
53.642700504755041
42
0.41421356237310125
10
-70.450877811274694
20
52.773858556745694
10
-68.488653403638381
20
41.645530947707734
42
0.41421356237309853
0
LWPOLYLINE
5
109
100
AcDbEntity
8
0
100
AcDbPolyline
90
8
70
1
43
0.0
10
-64.31181367093788
20
22.276573571398998
10
-50.524505128766968
20
24.707648058736012
42
0.41421356237310109
10
-49.916135447258021
20
25.57649000674536
10
-51.87835985489432
20
36.70481761578332
42
0.41421356237309986
10
-52.747201802903668
20
37.313187297292274
10
-66.53451034507458
20
34.88211280995526
42
0.41421356237308693
10
-67.142880026583569
20
34.013270861945905
10
-65.180655618947227
20
22.884943252907952
42
0.41421356237308282
0
LWPOLYLINE
5
110
100
AcDbEntity
8
0
100
AcDbPolyline
90
8
70
1
43
0.0
10
-61.003815885808812
20
3.51598587677229
10
-47.2165073436379
20
5.9470603641093085
42
0.41421356237309637
10
-46.608137662128954
20
6.8159023121186575
10
-48.570362069765238
20
17.944229921156619
42
0.4142135623730962
10
-49.439204017774586
20
18.552599602665573
10
-63.226512559945505
20
16.121525115328556
42
0.41421356237309442
10
-63.834882241454487
20
15.252683167319203
10
-61.872657833818153
20
4.1243555582812501
42
0.41421356237308093
0
LWPOLYLINE
5
111
100
AcDbEntity
8
0
100
AcDbPolyline
90
8
70
1
43
0.0
10
-90.515396381779425
20
61.179898099993466
10
-76.72808783960852
20
63.610972587330494
42
0.41421356237310192
10
-76.119718158099573
20
64.479814535339827
10
-78.081942565735872
20
75.608142144377794
42
0.41421356237309442
10
-78.950784513745219
20
76.216511825886755
10
-92.738093055916124
20
73.785437338549741
42
0.41421356237310192
10
-93.346462737425099
20
72.91659539054038
10
-91.384238329788786
20
61.788267781502412
42
0.41421356237311147
0
LWPOLYLINE
5
112
100
AcDbEntity
8
0
100
AcDbPolyline
90
8
70
1
43
0.0
10
-87.207398596650336
20
42.419310405366765
10
-73.420090054479445
20
44.850384892703794
42
0.41421356237309565
10
-72.811720372970498
20
45.719226840713141
10
-74.773944780606797
20
56.847554449751101
42
0.41421356237309781
10
-75.642786728616144
20
57.455924131260055
10
-89.430095270787035
20
55.024849643923034
42
0.41421356237310192
10
-90.038464952296025
20
54.156007695913679
10
-88.076240544659697
20
43.027680086875719
42
0.4142135623731093
0
LWPOLYLINE
5
113
100
AcDbEntity
8
0
100
AcDbPolyline
90
8
70
1
43
0.0
10
-83.899400811959225
20
23.658722710566991
10
-70.112092269788292
20
26.089797197904009
42
0.41421356237309703
10
-69.503722588279345
20
26.958639145913356
10
-71.465946995915644
20
38.08696675495132
42
0.41421356237309509
10
-72.334788943924991
20
38.695336436460273
10
-86.122097486095896
20
36.264261949123259
42
0.41421356237307183
10
-86.730467167604886
20
35.395420001113905
10
-84.768242759968558
20
24.267092392075948
42
0.41421356237308282
0
LWPOLYLINE
5
114
100
AcDbEntity
8
0
100
AcDbPolyline
90
8
70
1
43
0.0
10
-80.591403026830136
20
4.8981350159402881
10
-66.804094484659217
20
7.3292095032773075
42
0.41421356237310109
10
-66.19572480315027
20
8.1980514512866556
10
-68.157949210786569
20
19.326379060324619
42
0.41421356237308937
10
-69.026791158795916
20
19.934748741833573
10
-82.814099700966835
20
17.503674254496559
42
0.41421356237308771
10
-83.422469382475825
20
16.634832306487201
10
-81.460244974839483
20
5.5065046974492482
42
0.41421356237308349
0
LWPOLYLINE
5
115
100
AcDbEntity
8
0
100
AcDbPolyline
90
8
70
1
43
0.0
10
-110.51648324587029
20
64.907120701019039
10
-96.729174703699385
20
67.338195188356067
42
0.41421356237311435
10
-96.120805022190439
20
68.207037136365415
10
-98.083029429826723
20
79.335364745403368
42
0.41421356237310464
10
-98.951871377836085
20
79.943734426912329
10
-112.73917992000699
20
77.512659939575315
42
0.41421356237308637
10
-113.34754960151598
20
76.643817991565953
10
-111.38532519387965
20
65.515490382527986
42
0.41421356237308016
0
LWPOLYLINE
5
116
100
AcDbEntity
8
0
100
AcDbPolyline
90
8
70
1
43
0.0
10
-103.90048767605006
20
27.385945311592572
10
-90.113179133879143
20
29.817019798929586
42
0.41421356237312162
10
-89.504809452370196
20
30.685861746938933
10
-91.467033860006495
20
41.814189355976893
42
0.41421356237309165
10
-92.335875808015842
20
42.422559037485847
10
-106.12318435018676
20
39.991484550148833
42
0.41421356237308432
10
-106.73155403169574
20
39.122642602139479
10
-104.76932962405941
20
27.994314993101522
42
0.41421356237308787
0
LWPOLYLINE
5
117
100
AcDbEntity
8
0
100
AcDbPolyline
90
8
70
1
43
0.0
10
-100.59248989092099
20
8.6253576169658626
10
-86.805181348750082
20
11.056432104302882
42
0.41421356237311213
10
-86.196811667241136
20
11.925274052312231
10
-88.15903607487742
20
23.053601661350193
42
0.41421356237310536
10
-89.027878022886782
20
23.66197134285915
10
-102.81518656505769
20
21.230896855522133
42
0.41421356237308299
10
-103.42355624656668
20
20.362054907512778
10
-101.46133183893035
20
9.2337272984748182
42
0.41421356237309165
0
LWPOLYLINE
5
118
100
AcDbEntity
8
0
100
AcDbPolyline
90
8
70
1
43
0.0
10
-129.27707094075225
20
61.599122916487758
10
-115.48976239858133
20
64.030197403824772
42
0.41421356237311957
10
-114.88139271707239
20
64.899039351834119
10
-116.84361712470867
20
76.027366960872072
42
0.41421356237309098
10
-117.71245907271803
20
76.635736642381033
10
-131.49976761488892
20
74.204662155044034
42
0.41421356237309442
10
-132.10813729639793
20
73.335820207034658
10
-130.14591288876159
20
62.207492597996705
42
0.41421356237308415
0
LWPOLYLINE
5
119
100
AcDbEntity
8
0
100
AcDbPolyline
90
8
70
1
43
0.0
10
-125.96907315562316
20
42.838535221861058
10
-112.18176461345224
20
45.269609709198079
42
0.41421356237312296
10
-111.5733949319433
20
46.138451657207426
10
-113.5356193395796
20
57.266779266245386
42
0.41421356237309565
10
-114.40446128758894
20
57.87514894775434
10
-128.19176982975986
20
55.444074460417326
42
0.41421356237309381
10
-128.80013951126884
20
54.575232512407972
10
-126.83791510363251
20
43.446904903370019
42
0.41421356237310869
0
LWPOLYLINE
5
120
100
AcDbEntity
8
0
100
AcDbPolyline
90
8
70
1
43
0.0
10
-122.66107537093202
20
24.07794752706128
10
-108.87376682876111
20
26.509022014398298
42
0.41421356237310536
10
-108.26539714725214
20
27.377863962407645
10
-110.22762155488843
20
38.506191571445612
42
0.41421356237310125
10
-111.09646350289779
20
39.114561252954566
10
-124.8837720450687
20
36.683486765617545
42
0.41421356237308155
10
-125.49214172657769
20
35.81464481760819
10
-123.52991731894137
20
24.68631720857023
42
0.41421356237308787
0
LWPOLYLINE
5
121
100
AcDbEntity
8
0
100
AcDbPolyline
90
8
70
1
43
0.0
10
-119.35307758580294
20
5.3173598324345779
10
-105.56576904363203
20
7.7484343197715972
42
0.41421356237308127
10
-104.95739936212308
20
8.6172762677809462
10
-106.91962376975937
20
19.745603876818908
42
0.41421356237309259
10
-107.78846571776873
20
20.353973558327866
10
-121.57577425993964
20
17.922899070990848
42
0.41421356237308299
10
-122.18414394144861
20
17.05405712298149
10
-120.2219195338123
20
5.9257295139435335
42
0.41421356237310331
0
LWPOLYLINE
5
122
100
AcDbEntity
8
0
100
AcDbPolyline
90
8
70
1
43
0.0
10
-19.430095702809904
20
82.169153224032172
10
-8.7054734991442082
20
91.168179759643721
42
0.4142135623730942
10
-8.6130308740698638
20
92.224803799247866
10
-15.876530863527755
20
100.8811060064923
42
0.41421356237310192
10
-16.933154903131904
20
100.97354863156664
10
-27.657777106797599
20
91.974522095955095
42
0.41421356237308765
10
-27.750219731871933
20
90.917898056350964
10
-20.486719742414024
20
82.261595849106484
42
0.41421356237308893
0
LWPOLYLINE
5
123
100
AcDbEntity
8
0
100
AcDbPolyline
90
8
70
1
43
0.0
10
27.158981949990171
20
77.245309646789593
10
39.847290968503273
20
71.32865398241978
42
0.41421356237309814
10
40.843985505086273
20
71.691421126391759
10
45.619571862756196
20
81.932699119905905
42
0.41421356237309043
10
45.256804718784231
20
82.929393656488912
10
32.568495700271129
20
88.846049320858711
42
0.41421356237308821
10
31.571801163688107
20
88.483282176886746
10
26.796214806018206
20
78.242004183372586
42
0.41421356237308821
0
LWPOLYLINE
5
124
100
AcDbEntity
8
0
100
AcDbPolyline
90
8
70
1
43
0.0
10
48.587206296000105
20
68.572969264757774
10
62.374514838171024
20
66.141894777420731
42
0.41421356237310003
10
63.243356786180371
20
66.750264458929692
10
65.205581193816684
20
77.878592067967659
42
0.41421356237309442
10
64.597211512307723
20
78.747434015976992
10
50.809902970136818
20
81.178508503314049
42
0.41421356237308143
10
49.941061022127464
20
80.570138821805074
10
47.978836614491144
20
69.441811212767121
42
0.41421356237309509
0
LWPOLYLINE
5
125
100
AcDbEntity
8
0
100
AcDbPolyline
90
8
70
1
43
0.0
10
17.138326969831986
20
54.774378246366133
10
30.925635512002884
20
52.343303759029105
42
0.4142135623730856
10
31.79447746001226
20
52.951673440538073
10
33.756701867648559
20
64.080001049576026
42
0.41421356237309853
10
33.148332186139584
20
64.948842997585388
10
19.361023643968686
20
67.379917484922402
42
0.41421356237309581
10
18.492181695959346
20
66.771547803413455
10
16.529957288323033
20
55.643220194375488
42
0.41421356237308782
0
LWPOLYLINE
5
126
100
AcDbEntity
8
0
100
AcDbPolyline
90
8
70
1
43
0.0
10
53.832502913458327
20
43.468235753535765
10
67.619811455629232
20
41.037161266198737
42
0.41421356237309509
10
68.488653403638608
20
41.645530947707705
10
70.450877811274907
20
52.773858556745665
42
0.41421356237310192
10
69.842508129765932
20
53.642700504755027
10
56.055199587595027
20
56.073774992092041
42
0.4142135623730876
10
55.186357639585694
20
55.465405310583087
10
53.224133231949374
20
44.337077701545127
42
0.41421356237308882
0
LWPOLYLINE
5
127
100
AcDbEntity
8
0
100
AcDbPolyline
90
8
70
1
43
0.0
10
50.524505128767174
20
24.707648058735995
10
64.311813670938093
20
22.276573571398973
42
0.41421356237309181
10
65.180655618947469
20
22.88494325290792
10
67.142880026583725
20
34.013270861945891
42
0.41421356237310042
10
66.534510345074793
20
34.882112809955238
10
52.747201802903874
20
37.313187297292259
42
0.41421356237309442
10
51.878359854894533
20
36.704817615783305
10
49.91613544725822
20
25.576490006745342
42
0.41421356237309648
0
LWPOLYLINE
5
128
100
AcDbEntity
8
0
100
AcDbPolyline
90
8
70
1
43
0.0
10
47.216507343638092
20
5.9470603641092934
10
61.003815885809011
20
3.5159858767722696
42
0.41421356237308699
10
61.872657833818387
20
4.1243555582812208
10
63.83488224145465
20
15.252683167319187
42
0.41421356237309587
10
63.226512559945711
20
16.121525115328538
10
49.439204017774792
20
18.552599602665559
42
0.41421356237308943
10
48.570362069765451
20
17.944229921156602
10
46.608137662129138
20
6.8159023121186433
42
0.41421356237309614
0
LWPOLYLINE
5
129
100
AcDbEntity
8
0
100
AcDbPolyline
90
8
70
1
43
0.0
10
76.728087839608733
20
63.610972587330465
10
90.515396381779638
20
61.179898099993437
42
0.41421356237310869
10
91.384238329789014
20
61.788267781502384
10
93.346462737425327
20
72.916595390540351
42
0.4142135623730836
10
92.738093055916337
20
73.785437338549713
10
78.950784513745432
20
76.216511825886727
42
0.41421356237309725
10
78.081942565736099
20
75.608142144377766
10
76.119718158099786
20
64.479814535339813
42
0.41421356237309442
0
LWPOLYLINE
5
130
100
AcDbEntity
8
0
100
AcDbPolyline
90
8
70
1
43
0.0
10
66.804094484659416
20
7.3292095032772853
10
80.591403026830335
20
4.8981350159402615
42
0.41421356237308249
10
81.460244974839711
20
5.5065046974492127
10
83.422469382475967
20
16.63483230648718
42
0.41421356237310264
10
82.814099700967034
20
17.503674254496531
10
69.026791158796115
20
19.934748741833552
42
0.41421356237309526
10
68.157949210786782
20
19.326379060324594
10
66.195724803150455
20
8.198051451286636
42
0.41421356237310092
0
LWPOLYLINE
5
131
100
AcDbEntity
8
0
100
AcDbPolyline
90
8
70
1
43
0.0
10
115.48976239858155
20
64.030197403824744
10
129.27707094075245
20
61.599122916487715
42
0.41421356237311513
10
130.14591288876181
20
62.207492597996662
10
132.10813729639813
20
73.335820207034629
42
0.41421356237308143
10
131.49976761488915
20
74.204662155043991
10
117.71245907271825
20
76.635736642380991
42
0.41421356237309043
10
116.8436171247089
20
76.027366960872044
10
114.8813927170726
20
64.899039351834077
42
0.41421356237311957
0
LWPOLYLINE
5
132
100
AcDbEntity
8
0
100
AcDbPolyline
90
8
70
1
43
0.0
10
70.112092269788505
20
26.089797197903984
10
83.899400811959424
20
23.658722710566966
42
0.41421356237308382
10
84.768242759968786
20
24.267092392075913
10
86.730467167605042
20
35.395420001113884
42
0.41421356237310247
10
86.122097486096123
20
36.264261949123231
10
72.334788943925204
20
38.695336436460252
42
0.41421356237309925
10
71.465946995915857
20
38.086966754951291
10
69.503722588279544
20
26.958639145913335
42
0.41421356237310591
0
LWPOLYLINE
5
133
100
AcDbEntity
8
0
100
AcDbPolyline
90
8
70
1
43
0.0
10
73.420090054479658
20
44.850384892703765
10
87.207398596650563
20
42.419310405366737
42
0.41421356237309853
10
88.076240544659925
20
43.027680086875691
10
90.038464952296238
20
54.156007695913651
42
0.41421356237308016
10
89.430095270787263
20
55.024849643923012
10
75.642786728616358
20
57.455924131260034
42
0.41421356237310125
10
74.77394478060701
20
56.847554449751073
10
72.811720372970697
20
45.719226840713112
42
0.41421356237310192
0
LWPOLYLINE
5
134
100
AcDbEntity
8
0
100
AcDbPolyline
90
8
70
1
43
0.0
10
112.18176461345246
20
45.269609709198036
10
125.96907315562336
20
42.838535221861008
42
0.41421356237310647
10
126.83791510363275
20
43.446904903369969
10
128.80013951126904
20
54.575232512407936
42
0.41421356237308077
10
128.19176982976006
20
55.444074460417283
10
114.40446128758916
20
57.875148947754305
42
0.41421356237309442
10
113.53561933957982
20
57.266779266245351
10
111.5733949319435
20
46.138451657207391
42
0.41421356237308077
0
LWPOLYLINE
5
135
100
AcDbEntity
8
0
100
AcDbPolyline
90
8
70
1
43
0.0
10
108.8737668287613
20
26.509022014398262
10
122.66107537093221
20
24.077947527061241
42
0.41421356237308143
10
123.52991731894159
20
24.686317208570188
10
125.49214172657787
20
35.814644817608155
42
0.414213562373072
10
124.88377204506891
20
36.683486765617509
10
111.096463502898
20
39.114561252954523
42
0.41421356237310203
10
110.22762155488866
20
38.506191571445569
10
108.26539714725236
20
27.377863962407609
42
0.4142135623730876
0
LWPOLYLINE
5
136
100
AcDbEntity
8
0
100
AcDbPolyline
90
8
70
1
43
0.0
10
-107.20848546074122
20
46.146533006392339
10
-93.421176918570296
20
48.577607493729367
42
0.41421356237308143
10
-92.812807237061349
20
49.446449441738707
10
-94.775031644697648
20
60.574777050776675
42
0.41421356237310125
10
-95.643873592706996
20
61.183146732285635
10
-109.43118213487791
20
58.752072244948614
42
0.41421356237308299
10
-110.03955181638689
20
57.88323029693926
10
-108.07732740875056
20
46.754902687901307
42
0.41421356237309909
0
LWPOLYLINE
5
137
100
AcDbEntity
8
0
100
AcDbPolyline
90
8
70
1
43
0.0
10
86.805181348750281
20
11.056432104302854
10
100.59248989092119
20
8.6253576169658288
42
0.41421356237310331
10
101.46133183893056
20
9.2337272984747809
10
103.42355624656685
20
20.362054907512746
42
0.41421356237307305
10
102.81518656505789
20
21.230896855522097
10
89.027878022886981
20
23.661971342859118
42
0.41421356237309043
10
88.159036074877633
20
23.053601661350164
10
86.19681166724132
20
11.925274052312204
42
0.41421356237308021
0
LWPOLYLINE
5
138
100
AcDbEntity
8
0
100
AcDbPolyline
90
8
70
1
43
0.0
10
90.113179133879356
20
29.817019798929554
10
103.90048767605026
20
27.385945311592536
42
0.41421356237308737
10
104.76932962405965
20
27.994314993101483
10
106.73155403169594
20
39.122642602139443
42
0.41421356237307305
10
106.12318435018696
20
39.991484550148797
10
92.335875808016056
20
42.422559037485819
42
0.41421356237309442
10
91.467033860006723
20
41.814189355976865
10
89.504809452370395
20
30.685861746938905
42
0.41421356237308077
0
LWPOLYLINE
5
139
100
AcDbEntity
8
0
100
AcDbPolyline
90
8
70
1
43
0.0
10
93.421176918570524
20
48.577607493729332
10
107.20848546074143
20
46.146533006392303
42
0.41421356237309281
10
108.0773274087508
20
46.754902687901264
10
110.03955181638709
20
57.883230296939232
42
0.41421356237308077
10
109.43118213487813
20
58.752072244948579
10
95.643873592707223
20
61.1831467322856
42
0.41421356237310003
10
94.775031644697876
20
60.574777050776646
10
92.812807237061577
20
49.446449441738679
42
0.4142135623730876
0
LWPOLYLINE
5
140
100
AcDbEntity
8
0
100
AcDbPolyline
90
8
70
1
43
0.0
10
96.729174703699599
20
67.338195188356039
10
110.5164832458705
20
64.907120701019011
42
0.41421356237308937
10
111.38532519387988
20
65.515490382527958
10
113.34754960151616
20
76.643817991565925
42
0.41421356237308415
10
112.7391799200072
20
77.512659939575286
10
98.951871377836298
20
79.943734426912286
42
0.41421356237310403
10
98.083029429826951
20
79.335364745403339
10
96.120805022190652
20
68.207037136365372
42
0.41421356237311435
0
LWPOLYLINE
5
141
100
AcDbEntity
8
0
100
AcDbPolyline
90
8
70
1
43
0.0
10
13.83032918514083
20
36.013790551566359
10
27.617637727311745
20
33.582716064229338
42
0.4142135623730952
10
28.486479675321121
20
34.191085745738285
10
30.448704082957381
20
45.319413354776252
42
0.41421356237309781
10
29.840334401448445
20
46.188255302785599
10
16.053025859277529
20
48.61932979012262
42
0.4142135623730957
10
15.184183911268189
20
48.010960108613659
10
13.221959503631876
20
36.882632499575706
42
0.41421356237309598
0
LWPOLYLINE
5
142
100
AcDbEntity
8
0
100
AcDbPolyline
90
8
70
1
43
0.0
10
10.522331400011748
20
17.253202856939659
10
24.309639942182663
20
14.822128369602636
42
0.41421356237308854
10
25.178481890192039
20
15.430498051111588
10
27.140706297828302
20
26.558825660149555
42
0.41421356237308993
10
26.532336616319363
20
27.427667608158902
10
12.745028074148445
20
29.858742095495924
42
0.4142135623730977
10
11.876186126139107
20
29.250372413986966
10
9.9139617185027937
20
18.122044804949013
42
0.41421356237309587
0
LWPOLYLINE
5
143
100
AcDbEntity
8
0
100
AcDbPolyline
90
8
70
1
43
0.0
10
28.869419371824986
20
11.600131610524384
10
42.656727913995894
20
9.1690571231873612
42
0.41421356237309304
10
43.52556986200527
20
9.7774268046963115
10
45.487794269641533
20
20.905754413734279
42
0.41421356237309359
10
44.879424588132593
20
21.774596361743626
10
31.092116045961681
20
24.205670849080647
42
0.41421356237309959
10
30.223274097952345
20
23.597301167571693
10
28.261049690316028
20
12.468973558533737
42
0.41421356237309315
0
LWPOLYLINE
5
144
100
AcDbEntity
8
0
100
AcDbPolyline
90
8
70
1
43
0.0
10
32.177417156954064
20
30.360719305151083
10
45.964725699124983
20
27.929644817814065
42
0.41421356237308782
10
46.833567647134359
20
28.538014499323012
10
48.795792054770615
20
39.666342108360979
42
0.41421356237310042
10
48.187422373261683
20
40.535184056370326
10
34.400113831090763
20
42.966258543707347
42
0.41421356237309959
10
33.531271883081423
20
42.357888862198394
10
31.56904747544511
20
31.229561253160433
42
0.41421356237309853
0
LWPOLYLINE
5
145
100
AcDbEntity
8
0
100
AcDbPolyline
90
8
70
1
43
0.0
10
35.485414941645224
20
49.12130699995086
10
49.272723483816122
20
46.690232512613832
42
0.41421356237310591
10
50.141565431825498
20
47.2986021941228
10
52.103789839461797
20
58.42692980316076
42
0.41421356237308826
10
51.495420157952822
20
59.295771751170115
10
37.708111615781924
20
61.726846238507136
42
0.41421356237309986
10
36.839269667772584
20
61.118476556998182
10
34.877045260136271
20
49.990148947960222
42
0.41421356237309565
0
LWPOLYLINE
5
146
100
AcDbEntity
8
0
100
AcDbPolyline
90
8
70
1
43
0.0
10
105.56576904363223
20
7.7484343197715617
10
119.35307758580313
20
5.3173598324345388
42
0.41421356237309165
10
120.22191953381251
20
5.9257295139434891
10
122.1841439414488
20
17.054057122981455
42
0.41421356237308055
10
121.57577425993983
20
17.922899070990809
10
107.78846571776893
20
20.35397355832783
42
0.41421356237310492
10
106.91962376975958
20
19.745603876818873
10
104.95739936212328
20
8.6172762677809125
42
0.41421356237311213
0
LWPOLYLINE
5
147
100
AcDbEntity
8
0
100
AcDbPolyline
90
8
70
1
43
0.0
10
8.7054734991444338
20
91.168179759643721
10
19.430095702810128
20
82.169153224032172
42
0.41421356237308998
10
20.486719742414252
20
82.261595849106484
10
27.750219731872154
20
90.91789805635095
42
0.41421356237306683
10
27.657777106797823
20
91.974522095955081
10
16.933154903132127
20
100.97354863156664
42
0.41421356237310808
10
15.876530863527991
20
100.8811060064923
10
8.6130308740700929
20
92.224803799247866
42
0.41421356237309714
0
LWPOLYLINE
5
148
100
AcDbEntity
8
0
100
AcDbPolyline
90
90
70
1
43
0.0
10
-134.8739133685439
20
85.710022741895116
10
-134.35969504559469
20
85.800693306214953
42
0.36760731104889877
10
-130.34124496276468
20
86.50925447643354
10
-127.06948215618615
20
87.086154533711778
42
0.4142289490854133
10
-126.46111931742192
20
87.955035282895139
10
-126.73903233414646
20
89.530674291039219
42
-0.41421356237308826
10
-125.52229297112852
20
91.268358187057885
10
-91.644958554684223
20
97.241846279160526
42
-0.41421356237310192
10
-89.907274658665543
20
96.025106916142633
10
-89.629527190306987
20
94.449438717355051
42
0.41422894908539609
10
-88.760678401591363
20
93.841030234312655
10
-81.783293270246844
20
95.071331487762052
42
0.36760731104788463
10
-77.764843187429236
20
95.779892658001415
10
-70.787245063244924
20
97.010231467826685
42
0.41425986185971331
10
-70.178895977876309
20
97.879190168396718
10
-70.456920321639572
20
99.454488401668272
42
-0.41425986185934832
10
-69.240222150904216
20
101.19240580280803
10
-35.362399266936478
20
107.16598002491422
42
-0.41425986185936914
10
-33.624674215546747
20
105.94900715026661
10
-33.347147912256105
20
104.37362109902392
42
0.41425986185936087
10
-32.478285386561261
20
103.7651346617001
10
-24.026345490489192
20
105.25543970470349
10
24.026345490491572
20
105.25543970470349
10
32.478285386561211
20
103.76513466170005
42
0.41425986185938191
10
33.347147912256077
20
104.37362109902384
10
33.624674215546733
20
105.94900715026661
42
-0.41425986185937264
10
35.362399266936499
20
107.16598002491422
10
69.240222150904188
20
101.19240580280801
42
-0.4142598618593506
10
70.456920321639558
20
99.454488401668257
10
70.178895977876508
20
97.879190168397912
42
0.41425986185937047
10
70.787245063244313
20
97.010231467828007
10
77.764843187435972
20
95.779892657993301
42
0.36760731104810185
10
81.783293270257957
20
95.071331487768575
10
88.760682794413825
20
93.841029459737996
42
0.41422720718545697
10
89.629530808813229
20
94.449433550135751
10
89.907276290989358
20
96.025035671205814
42
-0.41422720718507822
10
91.644972319786262
20
97.241843852001637
10
125.52227920602648
20
91.268360614216775
42
-0.41422720718507183
10
126.73900643306027
20
89.530607900985416
10
126.46111414984544
20
87.955031664900815
42
0.41422720718507866
10
127.06947776336233
20
87.086155308285129
10
130.34124496276465
20
86.509254476433597
42
0.36760731104791067
10
134.35969504558517
20
85.800693306209368
10
134.87391336853057
20
85.710022741894818
42
-0.41421356237061219
10
136.09065273153558
20
83.972338845878028
10
121.36156435797884
20
0.43952773349691326
42
-0.36397023426349384
10
119.88435272847457
20
-0.8000000000023455
10
118.53801798355784
20
-0.80000000001490523
42
0.36760731105003058
10
114.45757683091074
20
-0.80000000000758575
10
110.73795977588009
20
-0.79999999999680171
42
0.41421356237396456
10
109.98795977587793
20
-1.5499999999968139
10
109.98795977587797
20
-3.1499999999999595
42
-0.41421356237310436
10
108.48795977587795
20
-4.6499999999999986
10
73.500259775877993
20
-4.6499999999999755
42
-0.41421356237309231
10
72.000259775877993
20
-3.1499999999999773
10
72.000259775877979
20
-1.5499999999999798
42
0.4142135623731022
10
71.250259775877964
20
-0.79999999999998295
10
64.018380352188316
20
-0.80000000000002292
42
0.36760731104798128
10
59.937939199558592
20
-0.8000000000077101
10
52.705844686345252
20
-0.79999999999860616
42
0.41424672048493349
10
51.955844691150297
20
-1.5500849056584443
10
51.956025794389888
20
-3.1498301886803235
42
-0.41424672048456262
10
50.456025804001854
20
-4.6499999999999986
10
15.467793747754065
20
-4.650000000000067
42
-0.41424672048455952
10
13.967793757366032
20
-3.1498301886804114
10
13.967974860605612
20
-1.5500849056598116
42
0.41424672048456507
10
13.217974865411577
20
-0.79999999999998295
10
-13.217974865411604
20
-0.80000000000032589
42
0.41424672048455863
10
-13.967974860605601
20
-1.5500849056601673
10
-13.96779375736603
20
-3.1498301886804092
42
-0.41424672048456035
10
-15.467793747754062
20
-4.6500000000000696
10
-50.456025804001854
20
-4.649999999999995
42
-0.41424672048456279
10
-51.956025794389888
20
-3.1498301886803404
10
-51.955844691150304
20
-1.5500849056598134
42
0.41424672048455269
10
-52.705844686344321
20
-0.79999999999998295
10
-59.937939199567644
20
-0.79999999999999016
42
0.36760731104797695
10
-64.018380352197369
20
-0.8000000000077101
10
-71.250259775877041
20
-0.79999999999860905
42
0.41421356237346912
10
-72.000259775877979
20
-1.549999999998608
10
-72.000259775877979
20
-3.1499999999999826
42
-0.41421356237309126
10
-73.500259775877993
20
-4.6499999999999808
10
-108.48795977587797
20
-4.6499999999999888
42
-0.41421356237310702
10
-109.98795977587797
20
-3.1499999999999595
10
-109.98795977587793
20
-1.5500000000000029
42
0.41421356237310458
10
-110.73795977587793
20
-0.79999999999998295
10
-114.45757683091966
20
-0.79999999999997984
42
0.36760731104793959
10
-118.53801798354905
20
-0.80000000000744365
10
-119.88435272846775
20
-0.80000000000116644
42
-0.36397023426481612
10
-121.36156435797902
20
0.43952773349808183
10
-136.09065273153601
20
83.972338845880614
42
-0.414213562368062
0
ENDSEC
0
SECTION
2
OBJECTS
0
DICTIONARY
5
C
100
AcDbDictionary
3
ACAD_GROUP
350
D
3
ACAD_MLINESTYLE
350
17
0
DICTIONARY
5
D
100
AcDbDictionary
0
DICTIONARY
5
1A
330
C
100
AcDbDictionary
0
DICTIONARY
5
17
100
AcDbDictionary
0
ENDSEC
0
EOF
