0
SECTION
2
HEADER
9
$INSUNITS
70
4
9
$ACADVER
1
AC1014
9
$HANDSEED
5
FFFF
0
ENDSEC
0
SECTION
2
TABLES
0
TABLE
2
VPORT
5
8
100
AcDbSymbolTable
0
ENDTAB
0
TABLE
2
LTYPE
5
5
100
AcDbSymbolTable
0
LTYPE
5
14
100
AcDbSymbolTableRecord
100
AcDbLinetypeTableRecord
2
BYBLOCK
70
0
0
LTYPE
5
15
100
AcDbSymbolTableRecord
100
AcDbLinetypeTableRecord
2
BYLAYER
70
0
0
ENDTAB
0
TABLE
2
LAYER
5
2
100
AcDbSymbolTable
70
2
0
LAYER
5
50
100
AcDbSymbolTableRecord
100
AcDbLayerTableRecord
2
0
70
0
6
CONTINUOUS
0
ENDTAB
0
TABLE
2
STYLE
5
3
100
AcDbSymbolTable
70
1
0
STYLE
5
11
100
AcDbSymbolTableRecord
100
AcDbTextStyleTableRecord
2
STANDARD
70
0
0
ENDTAB
0
TABLE
2
VIEW
5
6
100
AcDbSymbolTable
70
0
0
ENDTAB
0
TABLE
2
UCS
5
7
100
AcDbSymbolTable
70
0
0
ENDTAB
0
TABLE
2
APPID
5
9
100
AcDbSymbolTable
70
2
0
APPID
5
12
100
AcDbSymbolTableRecord
100
AcDbRegAppTableRecord
2
ACAD
70
0
0
ENDTAB
0
TABLE
2
DIMSTYLE
5
A
100
AcDbSymbolTable
70
1
0
ENDTAB
0
TABLE
2
BLOCK_RECORD
5
1
100
AcDbSymbolTable
70
1
0
BLOCK_RECORD
5
1F
100
AcDbSymbolTableRecord
100
AcDbBlockTableRecord
2
*MODEL_SPACE
0
BLOCK_RECORD
5
1B
100
AcDbSymbolTableRecord
100
AcDbBlockTableRecord
2
*PAPER_SPACE
0
ENDTAB
0
ENDSEC
0
SECTION
2
BLOCKS
0
BLOCK
5
20
100
AcDbEntity
100
AcDbBlockBegin
2
*MODEL_SPACE
0
ENDBLK
5
21
100
AcDbEntity
100
AcDbBlockEnd
0
BLOCK
5
1C
100
AcDbEntity
100
AcDbBlockBegin
2
*PAPER_SPACE
0
ENDBLK
5
1D
100
AcDbEntity
100
AcDbBlockEnd
0
ENDSEC
0
SECTION
2
ENTITIES
0
LWPOLYLINE
5
100
100
AcDbEntity
8
0
100
AcDbPolyline
90
8
70
1
43
0.0
10
-38.913989171182955
20
71.101833006503114
10
-27.585141833224824
20
76.384561278261856
42
0.41421356237309587
10
-27.22237468925286
20
77.381255814844863
10
-32.505102961011602
20
88.710103152803001
42
0.41421356237309653
10
-33.501797497594616
20
89.072870296774965
10
-44.830644835552746
20
83.790142025016209
42
0.41421356237308704
10
-45.193411979524711
20
82.793447488433202
10
-39.910683707765962
20
71.464600150475064
42
0.41421356237309892
0
LWPOLYLINE
5
101
100
AcDbEntity
8
0
100
AcDbPolyline
90
8
70
1
43
0.0
10
-61.531720116813311
20
65.681246258863879
10
-49.2216232041607
20
67.851848479700507
42
0.41421356237309509
10
-48.613253522651732
20
68.720690427709869
10
-50.783855743488374
20
81.030787340362465
42
0.4142135623730786
10
-51.652697691497721
20
81.639157021871412
10
-63.962794604150318
20
79.468554801034799
42
0.41421356237311957
10
-64.571164285659279
20
78.599712853025437
10
-62.400562064822658
20
66.28961594037284
42
0.41421356237309098
0
LWPOLYLINE
5
102
100
AcDbEntity
8
0
100
AcDbPolyline
90
8
70
1
43
0.0
10
-30.082840790645193
20
51.882655240472239
10
-17.7727438779926
20
54.053257461308874
42
0.4142135623730977
10
-17.164374196483635
20
54.922099409318228
10
-19.334976417320252
20
67.232196321970818
42
0.41421356237309742
10
-20.203818365329607
20
67.840566003479779
10
-32.513915277982214
20
65.669963782643151
42
0.41421356237307883
10
-33.122284959491161
20
64.801121834633804
10
-30.951682738654558
20
52.491024921981193
42
0.41421356237309781
0
LWPOLYLINE
5
103
100
AcDbEntity
8
0
100
AcDbPolyline
90
8
70
1
43
0.0
10
-26.774843005954061
20
33.122067545672472
10
-14.46474609330145
20
35.292669766509093
42
0.41421356237309648
10
-13.856376411792485
20
36.16151171451844
10
-16.026978632629106
20
48.471608627171044
42
0.4142135623731007
10
-16.895820580638457
20
49.079978308680012
10
-29.20591749329105
20
46.909376087843384
42
0.41421356237311457
10
-29.814287174799997
20
46.040534139834037
10
-27.643684953963387
20
33.730437227181433
42
0.4142135623730902
0
LWPOLYLINE
5
104
100
AcDbEntity
8
0
100
AcDbPolyline
90
8
70
1
43
0.0
10
-23.466845220824982
20
14.361479851045768
10
-11.156748308172375
20
16.532082071882389
42
0.41421356237309731
10
-10.548378626663409
20
17.400924019891743
10
-12.718980847500029
20
29.71102093254434
42
0.41421356237309542
10
-13.587822795509378
20
30.319390614053312
10
-25.897919708161972
20
28.148788393216684
42
0.41421356237310397
10
-26.506289389670918
20
27.279946445207329
10
-24.335687168834333
20
14.969849532554724
42
0.41421356237309259
0
LWPOLYLINE
5
105
100
AcDbEntity
8
0
100
AcDbPolyline
90
8
70
1
43
0.0
10
-48.429928762458431
20
46.229583994056973
10
-36.119831849805834
20
48.400186214893601
42
0.41421356237309581
10
-35.511462168296873
20
49.269028162902956
10
-37.682064389133487
20
61.579125075555545
42
0.41421356237309742
10
-38.550906337142841
20
62.187494757064513
10
-50.861003249795459
20
60.016892536227893
42
0.41421356237307677
10
-51.469372931304406
20
59.148050588218545
10
-49.298770710467792
20
46.837953675565927
42
0.41421356237309781
0
LWPOLYLINE
5
106
100
AcDbEntity
8
0
100
AcDbPolyline
90
8
70
1
43
0.0
10
-45.121930977767299
20
27.468996299257199
10
-32.811834065114688
20
29.63959852009382
42
0.41421356237309442
10
-32.203464383605727
20
30.508440468103171
10
-34.374066604442348
20
42.818537380755771
42
0.41421356237310125
10
-35.242908552451695
20
43.426907062264739
10
-47.553005465104292
20
41.256304841428111
42
0.4142135623731043
10
-48.161375146613224
20
40.387462893418764
10
-45.990772925776625
20
28.07736598076616
42
0.41421356237309875
0
LWPOLYLINE
5
107
100
AcDbEntity
8
0
100
AcDbPolyline
90
8
70
1
43
0.0
10
-41.813933192638224
20
8.7084086046304989
10
-29.503836279985613
20
10.87901082546712
42
0.41421356237310153
10
-28.895466598476645
20
11.747852773476472
10
-31.066068819313269
20
24.057949686129074
42
0.41421356237309781
10
-31.934910767322616
20
24.666319367638039
10
-44.245007679975217
20
22.495717146801411
42
0.41421356237310197
10
-44.853377361484156
20
21.62687519879206
10
-42.682775140647571
20
9.3167782861394546
42
0.41421356237308871
0
LWPOLYLINE
5
108
100
AcDbEntity
8
0
100
AcDbPolyline
90
8
70
1
43
0.0
10
-66.777016734271541
20
40.576512747641893
10
-54.466919821618944
20
42.747114968478513
42
0.41421356237310464
10
-53.858550140109983
20
43.615956916487875
10
-56.029152360946604
20
55.926053829140457
42
0.41421356237310247
10
-56.897994308955958
20
56.534423510649425
10
-69.208091221608569
20
54.363821289812805
42
0.41421356237307272
10
-69.816460903117516
20
53.494979341803457
10
-67.645858682280902
20
41.184882429150846
42
0.41421356237309387
0
LWPOLYLINE
5
109
100
AcDbEntity
8
0
100
AcDbPolyline
90
8
70
1
43
0.0
10
-63.469018949580409
20
21.815925052842118
10
-51.158922036927798
20
23.986527273678742
42
0.41421356237309986
10
-50.55055235541883
20
24.85536922168809
10
-52.721154576255458
20
37.165466134340697
42
0.41421356237309925
10
-53.589996524264805
20
37.773835815849658
10
-65.900093436917416
20
35.60323359501303
42
0.41421356237310197
10
-66.508463118426349
20
34.734391647003676
10
-64.337860897589735
20
22.424294734351079
42
0.41421356237309392
0
LWPOLYLINE
5
110
100
AcDbEntity
8
0
100
AcDbPolyline
90
8
70
1
43
0.0
10
-60.161021164451327
20
3.0553373582154131
10
-47.850924251798723
20
5.2259395790520351
42
0.41421356237309581
10
-47.242554570289755
20
6.0947815270613876
10
-49.413156791126376
20
18.404878439713993
42
0.41421356237310414
10
-50.281998739135723
20
19.013248121222958
10
-62.59209565178832
20
16.84264590038633
42
0.41421356237309886
10
-63.200465333297267
20
15.973803952376972
10
-61.029863112460674
20
3.6637070397243714
42
0.41421356237309809
0
LWPOLYLINE
5
111
100
AcDbEntity
8
0
100
AcDbPolyline
90
8
70
1
43
0.0
10
-89.672601660421947
20
60.719249581436586
10
-77.36250474776935
20
62.88985180227322
42
0.41421356237310059
10
-76.754135066260389
20
63.758693750282561
10
-78.924737287097003
20
76.068790662935172
42
0.41421356237309909
10
-79.79357923510635
20
76.677160344444118
10
-92.103676147758975
20
74.506558123607505
42
0.41421356237309853
10
-92.712045829267922
20
73.637716175598158
10
-90.541443608431308
20
61.327619262945547
42
0.41421356237309725
0
LWPOLYLINE
5
112
100
AcDbEntity
8
0
100
AcDbPolyline
90
8
70
1
43
0.0
10
-86.364603875292858
20
41.958661886809885
10
-74.054506962640275
20
44.129264107646513
42
0.41421356237310192
10
-73.4461372811313
20
44.998106055655867
10
-75.616739501967928
20
57.308202968308464
42
0.41421356237310247
10
-76.485581449977275
20
57.916572649817432
10
-88.7956783626299
20
55.745970428980804
42
0.41421356237309098
10
-89.404048044138847
20
54.87712848097145
10
-87.233445823302219
20
42.567031568318839
42
0.4142135623731093
0
LWPOLYLINE
5
113
100
AcDbEntity
8
0
100
AcDbPolyline
90
8
70
1
43
0.0
10
-83.056606090601747
20
23.198074192010118
10
-70.746509177949122
20
25.368676412846739
42
0.41421356237309581
10
-70.138139496440161
20
26.237518360856086
10
-72.308741717276789
20
38.54761527350869
42
0.41421356237309442
10
-73.177583665286136
20
39.155984955017658
10
-85.487680577938718
20
36.98538273418103
42
0.41421356237309026
10
-86.096050259447665
20
36.116540786171676
10
-83.92544803861108
20
23.806443873519076
42
0.41421356237308249
0
LWPOLYLINE
5
114
100
AcDbEntity
8
0
100
AcDbPolyline
90
8
70
1
43
0.0
10
-79.748608305472658
20
4.4374864973834116
10
-67.438511392820047
20
6.6080887182200332
42
0.41421356237310047
10
-66.830141711311086
20
7.4769306662293866
10
-69.000743932147699
20
19.78702757888199
42
0.41421356237309337
10
-69.869585880157047
20
20.395397260390954
10
-82.179682792809672
20
18.22479503955433
42
0.41421356237310447
10
-82.788052474318604
20
17.355953091544972
10
-80.617450253482005
20
5.0458561788923699
42
0.41421356237309537
0
LWPOLYLINE
5
115
100
AcDbEntity
8
0
100
AcDbPolyline
90
8
70
1
43
0.0
10
-109.67368852451281
20
64.446472182462159
10
-97.363591611860215
20
66.617074403298801
42
0.41421356237308016
10
-96.75522193035124
20
67.485916351308134
10
-98.925824151187868
20
79.796013263960731
42
0.4142135623731002
10
-99.794666099197201
20
80.404382945469706
10
-112.10476301184983
20
78.233780724633078
42
0.41421356237308998
10
-112.71313269335877
20
77.364938776623731
10
-110.54253047252217
20
65.054841863971134
42
0.41421356237309509
0
LWPOLYLINE
5
116
100
AcDbEntity
8
0
100
AcDbPolyline
90
8
70
1
43
0.0
10
-103.05769295469258
20
26.925296793035692
10
-90.747596042039973
20
29.095899013872316
42
0.41421356237308216
10
-90.139226360531012
20
29.964740961881663
10
-92.309828581367626
20
42.274837874534263
42
0.41421356237309098
10
-93.178670529376987
20
42.883207556043232
10
-105.48876744202958
20
40.712605335206604
42
0.41421356237308055
10
-106.09713712353853
20
39.843763387197257
10
-103.92653490270193
20
27.533666474544649
42
0.41421356237310536
0
LWPOLYLINE
5
117
100
AcDbEntity
8
0
100
AcDbPolyline
90
8
70
1
43
0.0
10
-99.749695169563509
20
8.1647090984089861
10
-87.439598256910912
20
10.335311319245609
42
0.41421356237308105
10
-86.831228575401951
20
11.204153267254961
10
-89.001830796238565
20
23.514250179907567
42
0.41421356237310464
10
-89.870672744247912
20
24.122619861416531
10
-102.18076965690051
20
21.952017640579903
42
0.41421356237311213
10
-102.78913933840947
20
21.083175692570549
10
-100.61853711757287
20
8.7730787799179417
42
0.41421356237309259
0
LWPOLYLINE
5
118
100
AcDbEntity
8
0
100
AcDbPolyline
90
8
70
1
43
0.0
10
-128.43427621939475
20
61.138474397930878
10
-116.12417930674215
20
63.309076618767506
42
0.41421356237308016
10
-115.51580962523319
20
64.177918566776839
10
-117.6864118460698
20
76.48801547942945
42
0.41421356237309909
10
-118.55525379407916
20
77.096385160938411
10
-130.86535070673176
20
74.925782940101797
42
0.41421356237308193
10
-131.47372038824071
20
74.05694099209245
10
-129.30311816740411
20
61.746844079439846
42
0.41421356237310464
0
LWPOLYLINE
5
119
100
AcDbEntity
8
0
100
AcDbPolyline
90
8
70
1
43
0.0
10
-125.12627843426569
20
42.377886703304178
10
-112.81618152161307
20
44.548488924140798
42
0.41421356237311435
10
-112.20781184010411
20
45.417330872150153
10
-114.37841406094073
20
57.727427784802749
42
0.41421356237309909
10
-115.24725600895009
20
58.335797466311718
10
-127.55735292160269
20
56.165195245475097
42
0.41421356237312357
10
-128.16572260311165
20
55.296353297465743
10
-125.99512038227503
20
42.986256384813146
42
0.41421356237310869
0
LWPOLYLINE
5
120
100
AcDbEntity
8
0
100
AcDbPolyline
90
8
70
1
43
0.0
10
-121.81828064957455
20
23.617299008504403
10
-109.50818373692194
20
25.787901229341024
42
0.41421356237308216
10
-108.89981405541297
20
26.656743177350375
10
-111.07041627624957
20
38.966840090002975
42
0.41421356237310669
10
-111.93925822425894
20
39.575209771511943
10
-124.24935513691153
20
37.404607550675316
42
0.41421356237308482
10
-124.85772481842048
20
36.535765602665961
10
-122.68712259758389
20
24.225668690013361
42
0.41421356237310536
0
LWPOLYLINE
5
121
100
AcDbEntity
8
0
100
AcDbPolyline
90
8
70
1
43
0.0
10
-118.51028286444546
20
4.8567113138777014
10
-106.20018595179286
20
7.0273135347143239
42
0.41421356237308249
10
-105.59181627028389
20
7.8961554827236764
10
-107.76241849112051
20
20.206252395376278
42
0.41421356237309509
10
-108.63126043912986
20
20.814622076885243
10
-120.94135735178247
20
18.644019856048615
42
0.41421356237308093
10
-121.54972703329142
20
17.775177908039261
10
-119.37912481245482
20
5.465080995386657
42
0.41421356237310369
0
LWPOLYLINE
5
122
100
AcDbEntity
8
0
100
AcDbPolyline
90
8
70
1
43
0.0
10
-18.469889804660433
20
82.191617265424981
10
-8.8943342656732014
20
90.226462386506739
42
0.4142135623730932
10
-8.8018916405988765
20
91.28308642611087
10
-16.836736761680612
20
100.8586419650981
42
0.41421356237311097
10
-17.893360801284743
20
100.95108459017241
10
-27.468916340271996
20
92.916239469090698
42
0.41421356237309637
10
-27.561358965346315
20
91.859615429486553
10
-19.526513844264578
20
82.284059890499321
42
0.41421356237311169
0
LWPOLYLINE
5
123
100
AcDbEntity
8
0
100
AcDbPolyline
90
8
70
1
43
0.0
10
27.585141833225045
20
76.384561278261842
10
38.913989171183168
20
71.101833006503099
42
0.41421356237309104
10
39.910683707766196
20
71.464600150475064
10
45.193411979524932
20
82.793447488433173
42
0.41421356237309043
10
44.830644835552967
20
83.790142025016195
10
33.501797497594843
20
89.072870296774937
42
0.41421356237308821
10
32.505102961011829
20
88.710103152802986
10
27.222374689253087
20
77.381255814844849
42
0.41421356237310286
0
LWPOLYLINE
5
124
100
AcDbEntity
8
0
100
AcDbPolyline
90
8
70
1
43
0.0
10
49.22162320416092
20
67.851848479700493
10
61.531720116813524
20
65.681246258863865
42
0.41421356237309098
10
62.400562064822871
20
66.289615940372812
10
64.571164285659506
20
78.599712853025423
42
0.41421356237311896
10
63.962794604150545
20
79.46855480103477
10
51.652697691497949
20
81.639157021871412
42
0.41421356237308143
10
50.783855743488587
20
81.030787340362451
10
48.613253522651966
20
68.720690427709854
42
0.41421356237308882
0
LWPOLYLINE
5
125
100
AcDbEntity
8
0
100
AcDbPolyline
90
8
70
1
43
0.0
10
17.772743877992813
20
54.05325746130886
10
30.082840790645406
20
51.882655240472232
42
0.41421356237310353
10
30.951682738654746
20
52.491024921981193
10
33.122284959491374
20
64.80112183463379
42
0.41421356237308854
10
32.513915277982434
20
65.669963782643151
10
20.20381836532983
20
67.840566003479793
42
0.41421356237309537
10
19.334976417320465
20
67.232196321970804
10
17.164374196483859
20
54.922099409318221
42
0.41421356237310136
0
LWPOLYLINE
5
126
100
AcDbEntity
8
0
100
AcDbPolyline
90
8
70
1
43
0.0
10
54.466919821619157
20
42.747114968478499
10
66.777016734271754
20
40.576512747641864
42
0.41421356237310353
10
67.645858682281087
20
41.184882429150832
10
69.816460903117715
20
53.494979341803429
42
0.41421356237307799
10
69.208091221608782
20
54.36382128981279
10
56.897994308956171
20
56.534423510649425
42
0.41421356237308415
10
56.02915236094681
20
55.926053829140443
10
53.858550140110204
20
43.615956916487846
42
0.41421356237309387
0
LWPOLYLINE
5
127
100
AcDbEntity
8
0
100
AcDbPolyline
90
8
70
1
43
0.0
10
51.158922036928004
20
23.986527273678725
10
63.469018949580615
20
21.815925052842097
42
0.41421356237308882
10
64.337860897589948
20
22.424294734351054
10
66.508463118426576
20
34.734391647003655
42
0.41421356237309676
10
65.900093436917601
20
35.603233595013009
10
53.589996524265011
20
37.77383581584963
42
0.41421356237309565
10
52.721154576255657
20
37.165466134340676
10
50.550552355419043
20
24.855369221688072
42
0.41421356237309648
0
LWPOLYLINE
5
128
100
AcDbEntity
8
0
100
AcDbPolyline
90
8
70
1
43
0.0
10
47.850924251798915
20
5.2259395790520191
10
60.161021164451526
20
3.0553373582153931
42
0.41421356237310197
10
61.029863112460873
20
3.663707039724351
10
63.200465333297487
20
15.973803952376951
42
0.41421356237311474
10
62.592095651788526
20
16.842645900386305
10
50.281998739135929
20
19.013248121222933
42
0.41421356237309853
10
49.413156791126568
20
18.404878439713976
10
47.242554570289961
20
6.0947815270613717
42
0.41421356237309592
0
LWPOLYLINE
5
129
100
AcDbEntity
8
0
100
AcDbPolyline
90
8
70
1
43
0.0
10
77.362504747769563
20
62.889851802273199
10
89.67260166042216
20
60.719249581436557
42
0.41421356237309542
10
90.541443608431507
20
61.327619262945525
10
92.712045829268121
20
73.637716175598129
42
0.41421356237310247
10
92.103676147759188
20
74.506558123607476
10
79.793579235106577
20
76.677160344444104
42
0.41421356237309909
10
78.924737287097216
20
76.068790662935143
10
76.754135066260602
20
63.758693750282532
42
0.41421356237309442
0
LWPOLYLINE
5
130
100
AcDbEntity
8
0
100
AcDbPolyline
90
8
70
1
43
0.0
10
67.438511392820246
20
6.608088718220011
10
79.748608305472843
20
4.437486497383385
42
0.41421356237309537
10
80.61745025348219
20
5.0458561788923433
10
82.788052474318832
20
17.355953091544944
42
0.41421356237309009
10
82.179682792809842
20
18.224795039554298
10
69.86958588015726
20
20.395397260390922
42
0.41421356237309964
10
69.000743932147898
20
19.787027578881968
10
66.830141711311285
20
7.4769306662293635
42
0.4142135623731007
0
LWPOLYLINE
5
131
100
AcDbEntity
8
0
100
AcDbPolyline
90
8
70
1
43
0.0
10
116.12417930674238
20
63.30907661876747
10
128.43427621939497
20
61.138474397930835
42
0.41421356237309942
10
129.30311816740431
20
61.746844079439796
10
131.47372038824096
20
74.056940992092407
42
0.41421356237308077
10
130.86535070673199
20
74.925782940101755
10
118.55525379407938
20
77.096385160938382
42
0.41421356237309909
10
117.68641184607003
20
76.488015479429407
10
115.5158096252334
20
64.17791856677681
42
0.41421356237308016
0
LWPOLYLINE
5
132
100
AcDbEntity
8
0
100
AcDbPolyline
90
8
70
1
43
0.0
10
70.746509177949321
20
25.368676412846717
10
83.056606090601946
20
23.19807419201009
42
0.41421356237308282
10
83.925448038611279
20
23.806443873519044
10
86.096050259447907
20
36.116540786171647
42
0.41421356237308932
10
85.487680577938931
20
36.985382734181002
10
73.177583665286335
20
39.155984955017622
42
0.41421356237310042
10
72.308741717276973
20
38.547615273508669
10
70.138139496440374
20
26.237518360856065
42
0.41421356237310591
0
LWPOLYLINE
5
133
100
AcDbEntity
8
0
100
AcDbPolyline
90
8
70
1
43
0.0
10
74.054506962640488
20
44.129264107646485
10
86.364603875293085
20
41.958661886809864
42
0.41421356237309137
10
87.233445823302418
20
42.567031568318825
10
89.404048044139032
20
54.877128480971422
42
0.41421356237310591
10
88.795678362630099
20
55.745970428980776
10
76.485581449977488
20
57.916572649817404
42
0.41421356237309909
10
75.616739501968141
20
57.308202968308436
10
73.446137281131527
20
44.998106055655846
42
0.41421356237310247
0
LWPOLYLINE
5
134
100
AcDbEntity
8
0
100
AcDbPolyline
90
8
70
1
43
0.0
10
112.81618152161329
20
44.548488924140763
10
125.12627843426588
20
42.377886703304135
42
0.41421356237310752
10
125.99512038227523
20
42.986256384813103
10
128.16572260311187
20
55.296353297465693
42
0.41421356237308143
10
127.5573529216029
20
56.165195245475054
10
115.2472560089503
20
58.335797466311675
42
0.41421356237309909
10
114.37841406094094
20
57.727427784802714
10
112.20781184010433
20
45.417330872150117
42
0.41421356237308143
0
LWPOLYLINE
5
135
100
AcDbEntity
8
0
100
AcDbPolyline
90
8
70
1
43
0.0
10
109.50818373692213
20
25.787901229340989
10
121.81828064957473
20
23.617299008504364
42
0.41421356237309043
10
122.68712259758408
20
24.225668690013322
10
124.85772481842071
20
36.535765602665919
42
0.41421356237308143
10
124.24935513691175
20
37.40460755067528
10
111.93925822425913
20
39.575209771511901
42
0.41421356237310702
10
111.07041627624979
20
38.966840090002947
10
108.89981405541317
20
26.656743177350339
42
0.41421356237308077
0
LWPOLYLINE
5
136
100
AcDbEntity
8
0
100
AcDbPolyline
90
8
70
1
43
0.0
10
-106.36569073938374
20
45.685884487835466
10
-94.055593826731126
20
47.856486708672094
42
0.41421356237308415
10
-93.447224145222165
20
48.725328656681448
10
-95.617826366058779
20
61.035425569334045
42
0.41421356237310869
10
-96.48666831406814
20
61.643795250843006
10
-108.79676522672074
20
59.473193030006385
42
0.41421356237311552
10
-109.40513490822968
20
58.604351081997024
10
-107.23453268739308
20
46.294254169344427
42
0.41421356237309909
0
LWPOLYLINE
5
137
100
AcDbEntity
8
0
100
AcDbPolyline
90
8
70
1
43
0.0
10
87.439598256911097
20
10.33531131924558
10
99.749695169563708
20
8.1647090984089523
42
0.41421356237310392
10
100.61853711757306
20
8.7730787799179115
10
102.78913933840968
20
21.083175692570514
42
0.41421356237307971
10
102.18076965690072
20
21.952017640579868
10
89.870672744248111
20
24.122619861416492
42
0.41421356237309359
10
89.00183079623875
20
23.514250179907535
10
86.831228575402136
20
11.204153267254931
42
0.41421356237308021
0
LWPOLYLINE
5
138
100
AcDbEntity
8
0
100
AcDbPolyline
90
8
70
1
43
0.0
10
90.747596042040186
20
29.095899013872284
10
103.05769295469278
20
26.925296793035656
42
0.41421356237310203
10
103.92653490270213
20
27.533666474544614
10
106.09713712353877
20
39.843763387197214
42
0.41421356237308077
10
105.4887674420298
20
40.712605335206568
10
93.1786705293772
20
42.883207556043189
42
0.41421356237309565
10
92.309828581367839
20
42.274837874534235
10
90.139226360531225
20
29.964740961881631
42
0.41421356237308216
0
LWPOLYLINE
5
139
100
AcDbEntity
8
0
100
AcDbPolyline
90
8
70
1
43
0.0
10
94.055593826731339
20
47.856486708672051
10
106.36569073938395
20
45.68588448783543
42
0.41421356237309781
10
107.23453268739328
20
46.294254169344391
10
109.40513490822993
20
58.604351081996988
42
0.41421356237309509
10
108.79676522672096
20
59.473193030006342
10
96.486668314068353
20
61.64379525084297
42
0.41421356237310869
10
95.617826366058992
20
61.035425569334009
10
93.447224145222378
20
48.725328656681413
42
0.41421356237308415
0
LWPOLYLINE
5
140
100
AcDbEntity
8
0
100
AcDbPolyline
90
8
70
1
43
0.0
10
97.363591611860429
20
66.617074403298759
10
109.67368852451303
20
64.446472182462131
42
0.41421356237309387
10
110.54253047252237
20
65.054841863971092
10
112.713132693359
20
77.364938776623703
42
0.41421356237308882
10
112.10476301185004
20
78.23378072463305
10
99.794666099197428
20
80.404382945469678
42
0.41421356237309442
10
98.925824151188081
20
79.796013263960702
10
96.755221930351468
20
67.485916351308106
42
0.41421356237308016
0
LWPOLYLINE
5
141
100
AcDbEntity
8
0
100
AcDbPolyline
90
8
70
1
43
0.0
10
14.464746093301656
20
35.292669766509086
10
26.774843005954267
20
33.122067545672465
42
0.41421356237309426
10
27.643684953963607
20
33.730437227181419
10
29.814287174800231
20
46.040534139834016
42
0.41421356237310669
10
29.20591749329126
20
46.90937608784337
10
16.895820580638667
20
49.079978308679991
42
0.41421356237309165
10
16.026978632629309
20
48.471608627171037
10
13.856376411792699
20
36.16151171451844
42
0.41421356237309342
0
LWPOLYLINE
5
142
100
AcDbEntity
8
0
100
AcDbPolyline
90
8
70
1
43
0.0
10
11.156748308172574
20
16.532082071882385
10
23.466845220825185
20
14.361479851045759
42
0.41421356237309731
10
24.335687168834525
20
14.969849532554719
10
26.506289389671149
20
27.279946445207315
42
0.41421356237310358
10
25.897919708162178
20
28.14878839321667
10
13.587822795509584
20
30.319390614053297
42
0.41421356237309637
10
12.718980847500227
20
29.71102093254434
10
10.548378626663617
20
17.400924019891736
42
0.41421356237309337
0
LWPOLYLINE
5
143
100
AcDbEntity
8
0
100
AcDbPolyline
90
8
70
1
43
0.0
10
29.503836279985812
20
10.879010825467111
10
41.813933192638416
20
8.7084086046304847
42
0.41421356237308898
10
42.682775140647763
20
9.3167782861394421
10
44.853377361484384
20
21.626875198792042
42
0.41421356237309959
10
44.245007679975416
20
22.495717146801397
10
31.934910767322823
20
24.666319367638021
42
0.41421356237309909
10
31.066068819313465
20
24.057949686129064
10
28.895466598476855
20
11.747852773476462
42
0.41421356237309587
0
LWPOLYLINE
5
144
100
AcDbEntity
8
0
100
AcDbPolyline
90
8
70
1
43
0.0
10
32.811834065114894
20
29.639598520093813
10
45.121930977767505
20
27.468996299257185
42
0.41421356237308193
10
45.990772925776838
20
28.077365980766142
10
48.161375146613466
20
40.387462893418743
42
0.41421356237310192
10
47.553005465104491
20
41.256304841428097
10
35.242908552451901
20
43.426907062264718
42
0.41421356237310109
10
34.374066604442547
20
42.818537380755764
10
32.20346438360594
20
30.50844046810316
42
0.41421356237310386
0
LWPOLYLINE
5
145
100
AcDbEntity
8
0
100
AcDbPolyline
90
8
70
1
43
0.0
10
36.119831849806047
20
48.400186214893594
10
48.429928762458644
20
46.229583994056959
42
0.4142135623730967
10
49.298770710467977
20
46.83795367556592
10
51.469372931304605
20
59.148050588218524
42
0.41421356237307799
10
50.861003249795672
20
60.016892536227886
10
38.550906337143061
20
62.18749475706452
42
0.41421356237309537
10
37.6820643891337
20
61.579125075555538
10
35.511462168297101
20
49.269028162902941
42
0.41421356237310292
0
LWPOLYLINE
5
146
100
AcDbEntity
8
0
100
AcDbPolyline
90
8
70
1
43
0.0
10
106.20018595179305
20
7.0273135347142883
10
118.51028286444566
20
4.8567113138776623
42
0.41421356237309126
10
119.37912481245499
20
5.4650809953866197
10
121.54972703329163
20
17.775177908039218
42
0.4142135623730821
10
120.94135735178267
20
18.644019856048576
10
108.63126043913006
20
20.814622076885204
42
0.41421356237310702
10
107.7624184911207
20
20.206252395376243
10
105.59181627028408
20
7.89615548272364
42
0.41421356237307994
0
LWPOLYLINE
5
147
100
AcDbEntity
8
0
100
AcDbPolyline
90
8
70
1
43
0.0
10
8.894334265673427
20
90.226462386506739
10
18.469889804660653
20
82.191617265424981
42
0.41421356237311013
10
19.526513844264795
20
82.284059890499321
10
27.561358965346543
20
91.859615429486539
42
0.41421356237308127
10
27.468916340272209
20
92.916239469090669
10
17.893360801284985
20
100.95108459017243
42
0.41421356237310808
10
16.836736761680847
20
100.8586419650981
10
8.8018916405991039
20
91.28308642611087
42
0.41421356237309415
0
LWPOLYLINE
5
148
100
AcDbEntity
8
0
100
AcDbPolyline
90
90
70
1
43
0.0
10
-134.8739133685439
20
85.710022741895116
10
-134.35969504559469
20
85.800693306214953
42
0.36760731104889877
10
-130.34124496276468
20
86.50925447643354
10
-127.06948215618615
20
87.086154533711778
42
0.4142289490854133
10
-126.46111931742192
20
87.955035282895139
10
-126.73903233414646
20
89.530674291039219
42
-0.41421356237308826
10
-125.52229297112852
20
91.268358187057885
10
-91.644958554684223
20
97.241846279160526
42
-0.41421356237310192
10
-89.907274658665543
20
96.025106916142633
10
-89.629527190306987
20
94.449438717355051
42
0.41422894908539609
10
-88.760678401591363
20
93.841030234312655
10
-81.783293270246844
20
95.071331487762052
42
0.36760731104788463
10
-77.764843187429236
20
95.779892658001415
10
-70.787245063244924
20
97.010231467826685
42
0.41425986185971331
10
-70.178895977876309
20
97.879190168396718
10
-70.456920321639572
20
99.454488401668272
42
-0.41425986185934832
10
-69.240222150904216
20
101.19240580280803
10
-35.362399266936478
20
107.16598002491422
42
-0.41425986185936914
10
-33.624674215546747
20
105.94900715026661
10
-33.347147912256105
20
104.37362109902392
42
0.41425986185936087
10
-32.478285386561261
20
103.7651346617001
10
-24.026345490489192
20
105.25543970470349
10
24.026345490491572
20
105.25543970470349
10
32.478285386561211
20
103.76513466170005
42
0.41425986185938191
10
33.347147912256077
20
104.37362109902384
10
33.624674215546733
20
105.94900715026661
42
-0.41425986185937264
10
35.362399266936499
20
107.16598002491422
10
69.240222150904188
20
101.19240580280801
42
-0.4142598618593506
10
70.456920321639558
20
99.454488401668257
10
70.178895977876508
20
97.879190168397912
42
0.41425986185937047
10
70.787245063244313
20
97.010231467828007
10
77.764843187435972
20
95.779892657993301
42
0.36760731104810185
10
81.783293270257957
20
95.071331487768575
10
88.760682794413825
20
93.841029459737996
42
0.41422720718545697
10
89.629530808813229
20
94.449433550135751
10
89.907276290989358
20
96.025035671205814
42
-0.41422720718507822
10
91.644972319786262
20
97.241843852001637
10
125.52227920602648
20
91.268360614216775
42
-0.41422720718507183
10
126.73900643306027
20
89.530607900985416
10
126.46111414984544
20
87.955031664900815
42
0.41422720718507866
10
127.06947776336233
20
87.086155308285129
10
130.34124496276465
20
86.509254476433597
42
0.36760731104791067
10
134.35969504558517
20
85.800693306209368
10
134.87391336853057
20
85.710022741894818
42
-0.41421356237061219
10
136.09065273153558
20
83.972338845878028
10
121.36156435797884
20
0.43952773349691326
42
-0.36397023426349384
10
119.88435272847457
20
-0.8000000000023455
10
118.53801798355784
20
-0.80000000001490523
42
0.36760731105003058
10
114.45757683091074
20
-0.80000000000758575
10
110.73795977588009
20
-0.79999999999680171
42
0.41421356237396456
10
109.98795977587793
20
-1.5499999999968139
10
109.98795977587797
20
-3.1499999999999595
42
-0.41421356237310436
10
108.48795977587795
20
-4.6499999999999986
10
73.500259775877993
20
-4.6499999999999755
42
-0.41421356237309231
10
72.000259775877993
20
-3.1499999999999773
10
72.000259775877979
20
-1.5499999999999798
42
0.4142135623731022
10
71.250259775877964
20
-0.79999999999998295
10
64.018380352188316
20
-0.80000000000002292
42
0.36760731104798128
10
59.937939199558592
20
-0.8000000000077101
10
52.705844686345252
20
-0.79999999999860616
42
0.41424672048493349
10
51.955844691150297
20
-1.5500849056584443
10
51.956025794389888
20
-3.1498301886803235
42
-0.41424672048456262
10
50.456025804001854
20
-4.6499999999999986
10
15.467793747754065
20
-4.650000000000067
42
-0.41424672048455952
10
13.967793757366032
20
-3.1498301886804114
10
13.967974860605612
20
-1.5500849056598116
42
0.41424672048456507
10
13.217974865411577
20
-0.79999999999998295
10
-13.217974865411604
20
-0.80000000000032589
42
0.41424672048455863
10
-13.967974860605601
20
-1.5500849056601673
10
-13.96779375736603
20
-3.1498301886804092
42
-0.41424672048456035
10
-15.467793747754062
20
-4.6500000000000696
10
-50.456025804001854
20
-4.649999999999995
42
-0.41424672048456279
10
-51.956025794389888
20
-3.1498301886803404
10
-51.955844691150304
20
-1.5500849056598134
42
0.41424672048455269
10
-52.705844686344321
20
-0.79999999999998295
10
-59.937939199567644
20
-0.79999999999999016
42
0.36760731104797695
10
-64.018380352197369
20
-0.8000000000077101
10
-71.250259775877041
20
-0.79999999999860905
42
0.41421356237346912
10
-72.000259775877979
20
-1.549999999998608
10
-72.000259775877979
20
-3.1499999999999826
42
-0.41421356237309126
10
-73.500259775877993
20
-4.6499999999999808
10
-108.48795977587797
20
-4.6499999999999888
42
-0.41421356237310702
10
-109.98795977587797
20
-3.1499999999999595
10
-109.98795977587793
20
-1.5500000000000029
42
0.41421356237310458
10
-110.73795977587793
20
-0.79999999999998295
10
-114.45757683091966
20
-0.79999999999997984
42
0.36760731104793959
10
-118.53801798354905
20
-0.80000000000744365
10
-119.88435272846775
20
-0.80000000000116644
42
-0.36397023426481612
10
-121.36156435797902
20
0.43952773349808183
10
-136.09065273153601
20
83.972338845880614
42
-0.414213562368062
0
ENDSEC
0
SECTION
2
OBJECTS
0
DICTIONARY
5
C
100
AcDbDictionary
3
ACAD_GROUP
350
D
3
ACAD_MLINESTYLE
350
17
0
DICTIONARY
5
D
100
AcDbDictionary
0
DICTIONARY
5
1A
330
C
100
AcDbDictionary
0
DICTIONARY
5
17
100
AcDbDictionary
0
ENDSEC
0
EOF
